<svg width="512" height="512" viewBox="0 0 512 512" fill="none" xmlns="http://www.w3.org/2000/svg">
<path d="M468.416 397.638L374.232 343.232L272.672 402.045V511L468.416 397.638ZM239.328 511V402.045L137.689 343.152L43.5842 397.638L239.328 511ZM27 142.313V368.862L121.168 314.393V196.687L27 142.218V142.313ZM443.691 166.187L390.927 196.703V314.313L485 368.782V142.234L443.691 166.187ZM43.6001 113.362L137.864 167.848L239.424 109.035V0.0798437L43.6001 113.362ZM374.232 167.848L468.416 113.362L272.592 0V109.035L374.232 167.848Z" fill="#414042"/>
<path d="M411.101 305.376C411.101 305.376 410.586 302.215 410.285 302.243L352.923 307.778C348.359 308.219 344.814 311.859 344.494 316.433L342.918 339.019L298.54 342.185L295.522 321.715C294.849 317.162 290.873 313.73 286.271 313.73H225.729C221.128 313.73 217.152 317.162 216.48 321.715L213.46 342.185L169.082 339.019L167.506 316.433C167.186 311.857 163.641 308.217 159.077 307.776L101.686 302.243C101.39 302.215 101.173 305.379 100.876 305.379L100.799 317.793L149.403 325.631L150.995 348.419C151.316 353.032 155.039 356.763 159.655 357.094L220.773 361.454C221.004 361.47 221.233 361.479 221.461 361.479C226.054 361.479 230.024 358.045 230.696 353.492L233.802 332.429H278.2L281.306 353.492C281.976 358.044 285.951 361.478 290.55 361.478C290.775 361.478 291 361.47 291.22 361.454L352.346 357.094C356.961 356.763 360.685 353.032 361.007 348.419L362.597 325.631L411.181 317.758L411.101 305.376Z" fill="white"/>
<path d="M100.876 211.774V287.102V296.669V305.376C101.047 305.378 101.218 305.384 101.388 305.4L158.772 310.933C161.778 311.223 164.133 313.642 164.343 316.654L166.112 341.986L216.168 345.557L219.617 322.178C220.064 319.147 222.664 316.9 225.73 316.9H286.272C289.336 316.9 291.936 319.147 292.383 322.178L295.832 345.557L345.89 341.986L347.657 316.654C347.868 313.642 350.222 311.225 353.228 310.933L410.59 305.4C410.76 305.384 410.929 305.378 411.101 305.376V297.908L411.124 297.9V211.774H411.337C418.939 202.072 425.973 191.848 432.719 180.941C423.76 165.689 412.783 152.06 401.049 139.432C390.167 144.91 379.598 151.115 369.615 157.718C364.619 152.753 358.993 148.691 353.466 144.445C348.036 140.084 341.917 136.886 336.113 133.161C337.841 120.292 338.695 107.624 339.039 94.4015C324.064 86.8647 308.094 81.8676 291.941 78.2783C285.492 89.1175 279.594 100.856 274.458 112.331C268.367 111.313 262.247 110.935 256.12 110.862V110.853C256.077 110.853 256.037 110.862 256.001 110.862C255.963 110.862 255.923 110.853 255.885 110.853V110.862C249.747 110.935 243.632 111.313 237.539 112.331C232.406 100.856 226.511 89.1175 220.053 78.2783C203.907 81.8676 187.936 86.8647 172.962 94.4015C173.305 107.624 174.159 120.292 175.892 133.161C170.077 136.886 163.965 140.084 158.534 144.445C153.015 148.691 147.379 152.753 142.382 157.718C132.399 151.115 121.833 144.91 110.947 139.432C99.2141 152.06 88.2433 165.689 79.2812 180.941C86.0238 191.848 93.0629 202.072 100.663 211.774H100.876Z" fill="#478CBF"/>
<path d="M359.621 322.732L357.844 348.198C357.63 351.267 355.188 353.711 352.119 353.931L290.995 358.292C290.846 358.303 290.697 358.308 290.55 358.308C287.512 358.308 284.891 356.079 284.443 353.029L280.938 329.258H231.063L227.558 353.029C227.087 356.228 224.227 358.528 221.006 358.292L159.882 353.931C156.813 353.711 154.371 351.267 154.157 348.198L152.38 322.732L100.781 317.758C100.805 323.303 100.876 329.378 100.876 330.588C100.876 385.083 170.006 411.277 255.895 411.578H256H256.106C341.995 411.277 411.101 385.083 411.101 330.588C411.101 329.356 411.176 323.306 411.201 317.758L359.621 322.732Z" fill="#478CBF"/>
<path d="M209.236 249.77C209.236 268.877 193.755 284.355 174.654 284.355C155.563 284.355 140.078 268.877 140.078 249.77C140.078 230.676 155.563 215.206 174.654 215.206C193.755 215.206 209.236 230.676 209.236 249.77Z" fill="white"/>
<path d="M200.915 251.822C200.915 264.495 190.644 274.767 177.961 274.767C165.284 274.767 155.006 264.495 155.006 251.822C155.006 239.148 165.284 228.867 177.961 228.867C190.644 228.867 200.915 239.148 200.915 251.822Z" fill="#414042"/>
<path d="M255.997 287.501C249.849 287.501 244.867 282.97 244.867 277.385V245.549C244.867 239.969 249.849 235.433 255.997 235.433C262.146 235.433 267.139 239.969 267.139 245.549V277.385C267.139 282.97 262.146 287.501 255.997 287.501Z" fill="white"/>
<path d="M302.765 249.77C302.765 268.877 318.246 284.355 337.349 284.355C356.439 284.355 371.923 268.877 371.923 249.77C371.923 230.676 356.439 215.206 337.349 215.206C318.246 215.206 302.765 230.676 302.765 249.77Z" fill="white"/>
<path d="M311.088 251.822C311.088 264.495 321.356 274.767 334.03 274.767C346.716 274.767 356.984 264.495 356.984 251.822C356.984 239.148 346.716 228.867 334.03 228.867C321.356 228.867 311.088 239.148 311.088 251.822Z" fill="#414042"/>
</svg>
